<svg width="857" height="98" viewBox="0 0 857 98" fill="none" xmlns="http://www.w3.org/2000/svg">
<path d="M110.175 27.591C110.175 22.1248 111.569 17.3528 114.355 13.2749C117.228 9.11022 121.146 5.85657 126.109 3.51394C131.159 1.17131 136.949 0 143.48 0C149.749 0 155.191 1.08455 159.805 3.25365C164.42 5.42275 168.033 8.54626 170.645 12.6242C173.258 16.7021 174.694 21.5175 174.955 27.0704H160.066C159.805 22.6454 158.194 19.2182 155.234 16.7888C152.274 14.3594 148.312 13.1447 143.349 13.1447C137.777 13.1447 133.292 14.4028 129.897 16.919C126.588 19.4351 124.934 22.8623 124.934 27.2005C124.934 30.7579 125.935 33.6211 127.938 35.7902C130.027 37.9593 133.162 39.521 137.341 40.4754L152.753 43.9894C160.676 45.7247 166.597 48.718 170.515 52.9695C174.52 57.1341 176.523 62.6436 176.523 69.498C176.523 75.2244 175.086 80.2568 172.213 84.595C169.426 88.8464 165.465 92.1434 160.328 94.4861C155.191 96.8287 149.183 98 142.304 98C135.774 98 130.027 96.9154 125.064 94.7463C120.101 92.4905 116.227 89.3236 113.441 85.2457C110.654 81.1678 109.174 76.3957 109 70.9296H123.758C123.932 75.181 125.674 78.5649 128.983 81.081C132.291 83.5104 136.775 84.7251 142.435 84.7251C148.356 84.7251 153.057 83.467 156.54 80.9509C160.023 78.4347 161.764 75.0509 161.764 70.7995C161.764 67.2421 160.763 64.4223 158.76 62.34C156.845 60.1709 153.797 58.6091 149.618 57.6547L134.337 54.2709C126.414 52.5356 120.406 49.4555 116.314 45.0305C112.222 40.5188 110.175 34.7056 110.175 27.591Z" fill="#FAFAFA"/>
<path d="M178.263 64.2922C178.263 57.6113 179.7 51.7548 182.573 46.7224C185.534 41.6901 189.582 37.7424 194.72 34.8791C199.857 32.0159 205.69 30.5843 212.221 30.5843C218.751 30.5843 224.541 32.0159 229.591 34.8791C234.641 37.7424 238.646 41.6901 241.607 46.7224C244.567 51.7548 246.047 57.6113 246.047 64.2922C246.047 70.8862 244.567 76.6994 241.607 81.7317C238.646 86.7641 234.641 90.7118 229.591 93.575C224.541 96.4382 218.751 97.8699 212.221 97.8699C205.69 97.8699 199.857 96.4382 194.72 93.575C189.582 90.7118 185.534 86.7641 182.573 81.7317C179.7 76.6994 178.263 70.8862 178.263 64.2922ZM192.369 64.162C192.369 68.3267 193.196 72.0142 194.85 75.2244C196.592 78.3479 198.942 80.8207 201.903 82.6428C204.863 84.378 208.302 85.2457 212.221 85.2457C216.052 85.2457 219.447 84.378 222.408 82.6428C225.368 80.8207 227.676 78.3479 229.33 75.2244C230.984 72.0142 231.811 68.3267 231.811 64.162C231.811 59.9973 230.984 56.3533 229.33 53.2297C227.676 50.1062 225.368 47.6768 222.408 45.9416C219.447 44.1195 216.052 43.2085 212.221 43.2085C208.302 43.2085 204.863 44.1195 201.903 45.9416C198.942 47.6768 196.592 50.1062 194.85 53.2297C193.196 56.3533 192.369 59.9973 192.369 64.162Z" fill="#FAFAFA"/>
<path d="M262.799 96.3081H248.694V0H262.799V60.7782L289.573 32.4064H307.205L282.782 57.7849L306.813 96.3081H290.618L272.986 68.0664L262.799 78.6082V96.3081Z" fill="#FAFAFA"/>
<path d="M296.542 64.2922C296.542 57.6113 297.978 51.7548 300.852 46.7224C303.812 41.6901 307.861 37.7424 312.998 34.8791C318.135 32.0159 323.969 30.5843 330.499 30.5843C337.029 30.5843 342.819 32.0159 347.869 34.8791C352.919 37.7424 356.925 41.6901 359.885 46.7224C362.845 51.7548 364.326 57.6113 364.326 64.2922C364.326 70.8862 362.845 76.6994 359.885 81.7317C356.925 86.7641 352.919 90.7118 347.869 93.575C342.819 96.4382 337.029 97.8699 330.499 97.8699C323.969 97.8699 318.135 96.4382 312.998 93.575C307.861 90.7118 303.812 86.7641 300.852 81.7317C297.978 76.6994 296.542 70.8862 296.542 64.2922ZM310.647 64.162C310.647 68.3267 311.474 72.0142 313.129 75.2244C314.87 78.3479 317.221 80.8207 320.181 82.6428C323.142 84.378 326.581 85.2457 330.499 85.2457C334.33 85.2457 337.726 84.378 340.686 82.6428C343.647 80.8207 345.954 78.3479 347.608 75.2244C349.263 72.0142 350.09 68.3267 350.09 64.162C350.09 59.9973 349.263 56.3533 347.608 53.2297C345.954 50.1062 343.647 47.6768 340.686 45.9416C337.726 44.1195 334.33 43.2085 330.499 43.2085C326.581 43.2085 323.142 44.1195 320.181 45.9416C317.221 47.6768 314.87 50.1062 313.129 53.2297C311.474 56.3533 310.647 59.9973 310.647 64.162Z" fill="#FAFAFA"/>
<path d="M387.078 96.3081H372.972V0H387.078V96.3081ZM365.658 58.3054V48.0239L394.522 34.2284V44.51L365.658 58.3054Z" fill="#FAFAFA"/>
<path d="M424.153 98C417.797 98 412.181 96.5684 407.305 93.7052C402.516 90.842 398.728 86.8942 395.942 81.8619C393.243 76.7428 391.893 70.8862 391.893 64.2922C391.893 57.6113 393.2 51.7548 395.812 46.7224C398.511 41.6901 402.255 37.7424 407.044 34.8791C411.832 31.9292 417.361 30.4542 423.63 30.4542C429.899 30.4542 435.298 31.799 439.825 34.4887C444.44 37.0916 448.01 40.8225 450.535 45.6813C453.147 50.4533 454.453 56.093 454.453 62.6003V67.2855L399.338 67.4157L399.599 58.3054H440.348C440.348 53.3599 438.824 49.4555 435.777 46.5923C432.816 43.6423 428.768 42.1673 423.63 42.1673C419.712 42.1673 416.36 42.9916 413.574 44.6401C410.875 46.2886 408.785 48.7614 407.305 52.0584C405.912 55.2687 405.215 59.2165 405.215 63.9017C405.215 71.1899 406.826 76.7428 410.048 80.5604C413.356 84.378 418.145 86.2868 424.414 86.2868C428.942 86.2868 432.686 85.4192 435.646 83.6839C438.606 81.9486 440.522 79.3891 441.393 76.0053H454.584C453.104 82.8597 449.664 88.239 444.266 92.1434C438.955 96.0478 432.25 98 424.153 98Z" fill="#FAFAFA"/>
<path d="M471.455 96.3081H457.35V0H471.455V60.7782L498.229 32.4064H515.861L491.438 57.7849L515.469 96.3081H499.274L481.642 68.0664L471.455 78.6082V96.3081Z" fill="#FAFAFA"/>
<path d="M532.584 27.591C532.584 22.1248 533.977 17.3528 536.763 13.2749C539.636 9.11022 543.554 5.85657 548.517 3.51394C553.567 1.17131 559.358 0 565.888 0C572.157 0 577.599 1.08455 582.213 3.25365C586.828 5.42275 590.441 8.54626 593.054 12.6242C595.666 16.7021 597.102 21.5175 597.364 27.0704H582.475C582.213 22.6454 580.603 19.2182 577.642 16.7888C574.682 14.3594 570.72 13.1447 565.757 13.1447C560.185 13.1447 555.701 14.4028 552.305 16.919C548.996 19.4351 547.342 22.8623 547.342 27.2005C547.342 30.7579 548.343 33.6211 550.346 35.7902C552.436 37.9593 555.57 39.521 559.749 40.4754L575.161 43.9894C583.084 45.7247 589.005 48.718 592.923 52.9695C596.928 57.1341 598.931 62.6436 598.931 69.498C598.931 75.2244 597.494 80.2568 594.621 84.595C591.835 88.8464 587.873 92.1434 582.736 94.4861C577.599 96.8287 571.591 98 564.712 98C558.182 98 552.436 96.9154 547.473 94.7463C542.51 92.4905 538.635 89.3236 535.849 85.2457C533.062 81.1678 531.582 76.3957 531.408 70.9296H546.166C546.341 75.181 548.082 78.5649 551.391 81.081C554.699 83.5104 559.183 84.7251 564.843 84.7251C570.764 84.7251 575.466 83.467 578.948 80.9509C582.431 78.4347 584.172 75.0509 584.172 70.7995C584.172 67.2421 583.171 64.4223 581.169 62.34C579.253 60.1709 576.206 58.6091 572.026 57.6547L556.745 54.2709C548.822 52.5356 542.814 49.4555 538.722 45.0305C534.63 40.5188 532.584 34.7056 532.584 27.591Z" fill="#FAFAFA"/>
<path d="M600.059 32.4064H639.11V44.1195H600.059V32.4064ZM626.572 96.3081H612.597V12.3639H626.572V96.3081Z" fill="#FAFAFA"/>
<path d="M686.055 32.4064H700.161V96.3081H687.231L685.925 87.1979C684.096 90.4081 681.223 93.0111 677.305 95.0066C673.474 97.0022 669.294 98 664.767 98C657.366 98 651.619 95.6574 647.527 90.9721C643.435 86.2869 641.389 80.0398 641.389 72.2311V32.2762H655.494V67.4157C655.494 73.8362 656.756 78.4347 659.281 81.2112C661.806 83.9876 665.376 85.3758 669.991 85.3758C675.302 85.3758 679.308 83.7707 682.007 80.5604C684.706 77.3502 686.055 72.4914 686.055 65.9841V32.4064Z" fill="#FAFAFA"/>
<path d="M733.48 98C727.298 98 721.943 96.5684 717.416 93.7052C712.975 90.842 709.536 86.9376 707.098 81.992C704.66 76.9597 703.441 71.1465 703.441 64.5525C703.441 57.9584 704.66 52.1018 707.098 46.9827C709.536 41.8637 713.062 37.8291 717.677 34.8791C722.292 31.9292 727.821 30.4542 734.264 30.4542C738.966 30.4542 743.188 31.4086 746.932 33.3174C750.764 35.2262 753.724 38.0027 755.814 41.6467V0H769.919V96.3081H756.989L756.075 85.506C754.072 89.4971 751.025 92.5772 746.932 94.7463C742.927 96.9154 738.443 98 733.48 98ZM736.484 85.1155C740.489 85.1155 743.885 84.2479 746.671 82.5126C749.545 80.6906 751.765 78.2178 753.332 75.0943C754.899 71.884 755.683 68.2399 755.683 64.162C755.683 59.9973 754.899 56.3533 753.332 53.2297C751.765 50.0195 749.545 47.5467 746.671 45.8114C743.885 43.9894 740.489 43.0784 736.484 43.0784C732.566 43.0784 729.17 43.9894 726.297 45.8114C723.511 47.6335 721.334 50.1062 719.767 53.2297C718.286 56.3533 717.546 59.9973 717.546 64.162C717.546 68.2399 718.286 71.884 719.767 75.0943C721.334 78.2178 723.511 80.6906 726.297 82.5126C729.17 84.2479 732.566 85.1155 736.484 85.1155Z" fill="#FAFAFA"/>
<path d="M772.547 96.3081V32.4064H786.522V96.3081H772.547ZM779.469 18.3506C777.031 18.3506 774.941 17.483 773.2 15.7477C771.459 14.0124 770.588 11.9301 770.588 9.50066C770.588 7.07126 771.459 4.98893 773.2 3.25365C774.941 1.51837 777.031 0.65073 779.469 0.65073C781.907 0.65073 783.997 1.51837 785.738 3.25365C787.479 4.98893 788.35 7.07126 788.35 9.50066C788.35 11.9301 787.479 14.0124 785.738 15.7477C783.997 17.483 781.907 18.3506 779.469 18.3506Z" fill="#FAFAFA"/>
<path d="M789.216 64.2922C789.216 57.6113 790.653 51.7548 793.526 46.7224C796.486 41.6901 800.535 37.7424 805.672 34.8791C810.809 32.0159 816.643 30.5843 823.173 30.5843C829.704 30.5843 835.494 32.0159 840.544 34.8791C845.594 37.7424 849.599 41.6901 852.559 46.7224C855.52 51.7548 857 57.6113 857 64.2922C857 70.8862 855.52 76.6994 852.559 81.7317C849.599 86.7641 845.594 90.7118 840.544 93.575C835.494 96.4382 829.704 97.8699 823.173 97.8699C816.643 97.8699 810.809 96.4382 805.672 93.575C800.535 90.7118 796.486 86.7641 793.526 81.7317C790.653 76.6994 789.216 70.8862 789.216 64.2922ZM803.321 64.162C803.321 68.3267 804.149 72.0142 805.803 75.2244C807.544 78.3479 809.895 80.8207 812.856 82.6428C815.816 84.378 819.255 85.2457 823.173 85.2457C827.004 85.2457 830.4 84.378 833.361 82.6428C836.321 80.8207 838.628 78.3479 840.283 75.2244C841.937 72.0142 842.764 68.3267 842.764 64.162C842.764 59.9973 841.937 56.3533 840.283 53.2297C838.628 50.1062 836.321 47.6768 833.361 45.9416C830.4 44.1195 827.004 43.2085 823.173 43.2085C819.255 43.2085 815.816 44.1195 812.856 45.9416C809.895 47.6768 807.544 50.1062 805.803 53.2297C804.149 56.3533 803.321 59.9973 803.321 64.162Z" fill="#FAFAFA"/>
<path d="M110 98H80.4634L38.4466 0H67.9832L110 98Z" fill="#FAFAFA"/>
<path d="M71.5534 98H42.0168L0 0H29.5366L71.5534 98Z" fill="#FAFAFA"/>
</svg>
