<svg width="898" height="113" viewBox="0 0 898 113" fill="none" xmlns="http://www.w3.org/2000/svg">
<path d="M1.5 31.2C1.5 25 3.05 19.55 6.15 14.85C9.25 10.15 13.6 6.50001 19.2 3.9C24.9 1.3 31.45 0 38.85 0C45.75 0 51.75 1.25 56.85 3.75001C62.05 6.15 66.1 9.6 69 14.1C72 18.6 73.7 24 74.1 30.3H59.25C58.85 24.9 56.85 20.7 53.25 17.7C49.65 14.7 44.8 13.2 38.7 13.2C31.9 13.2 26.45 14.8 22.35 18C18.25 21.1 16.2 25.35 16.2 30.75C16.2 35.15 17.45 38.7 19.95 41.4C22.45 44 26.25 45.9 31.35 47.1L49.2 51.3C58.1 53.3 64.75 56.75 69.15 61.65C73.65 66.45 75.9 72.65 75.9 80.25C75.9 86.75 74.3 92.4 71.1 97.2C68 102 63.55 105.7 57.75 108.3C52.05 110.9 45.35 112.2 37.65 112.2C30.35 112.2 23.9 111 18.3 108.6C12.8 106.1 8.45 102.6 5.25 98.1C2.15 93.5 0.4 88.15 0 82.05H15C15.1 87.25 17.2 91.4 21.3 94.5C25.4 97.5 30.85 99 37.65 99C44.85 99 50.55 97.4 54.75 94.2C59.05 91 61.2 86.75 61.2 81.45C61.2 77.15 60 73.65 57.6 70.95C55.2 68.25 51.4 66.3 46.2 65.1L28.35 61.05C19.55 59.05 12.85 55.55 8.25 50.55C3.75 45.45 1.5 39 1.5 31.2Z" fill="#0A0A0A"/>
<path d="M79.6723 73.65C79.6723 66.15 81.3223 59.5 84.6223 53.7C87.9223 47.9 92.4223 43.35 98.1223 40.05C103.922 36.75 110.522 35.1 117.922 35.1C125.322 35.1 131.872 36.75 137.572 40.05C143.272 43.35 147.772 47.9 151.072 53.7C154.372 59.5 156.022 66.15 156.022 73.65C156.022 81.15 154.372 87.8 151.072 93.6C147.772 99.4 143.272 103.95 137.572 107.25C131.872 110.55 125.322 112.2 117.922 112.2C110.522 112.2 103.922 110.55 98.1223 107.25C92.4223 103.95 87.9223 99.4 84.6223 93.6C81.3223 87.8 79.6723 81.15 79.6723 73.65ZM93.9223 73.65C93.9223 78.75 94.9223 83.25 96.9223 87.15C99.0223 91.05 101.872 94.1 105.472 96.3C109.072 98.5 113.222 99.6 117.922 99.6C122.622 99.6 126.772 98.5 130.372 96.3C133.972 94.1 136.772 91.05 138.772 87.15C140.872 83.25 141.922 78.75 141.922 73.65C141.922 68.45 140.872 63.95 138.772 60.15C136.772 56.25 133.972 53.2 130.372 51C126.772 48.8 122.622 47.7 117.922 47.7C113.222 47.7 109.072 48.8 105.472 51C101.872 53.2 99.0223 56.25 96.9223 60.15C94.9223 63.95 93.9223 68.45 93.9223 73.65Z" fill="#0A0A0A"/>
<path d="M178.53 110.4H164.43V0H178.53V71.55L211.08 37.05H228.78L200.73 66.3L228.63 110.4H212.43L190.98 76.5L178.53 89.55V110.4Z" fill="#0A0A0A"/>
<path d="M225.073 73.65C225.073 66.15 226.723 59.5 230.023 53.7C233.323 47.9 237.823 43.35 243.523 40.05C249.323 36.75 255.923 35.1 263.323 35.1C270.723 35.1 277.273 36.75 282.973 40.05C288.673 43.35 293.173 47.9 296.473 53.7C299.773 59.5 301.423 66.15 301.423 73.65C301.423 81.15 299.773 87.8 296.473 93.6C293.173 99.4 288.673 103.95 282.973 107.25C277.273 110.55 270.723 112.2 263.323 112.2C255.923 112.2 249.323 110.55 243.523 107.25C237.823 103.95 233.323 99.4 230.023 93.6C226.723 87.8 225.073 81.15 225.073 73.65Z" fill="#0A0A0A"/>
<path d="M323.931 110.4H309.831V0H323.931V110.4ZM301.131 65.7V55.05L332.781 39.9V50.55L301.131 65.7Z" fill="#0A0A0A"/>
<path d="M368.837 112.2C361.737 112.2 355.437 110.6 349.937 107.4C344.437 104.1 340.137 99.6 337.037 93.9C333.937 88.1 332.387 81.4 332.387 73.8C332.387 66.1 333.887 59.35 336.887 53.55C339.987 47.75 344.187 43.2 349.487 39.9C354.887 36.6 361.137 34.95 368.237 34.95C375.237 34.95 381.287 36.45 386.387 39.45C391.587 42.45 395.587 46.65 398.387 52.05C401.287 57.45 402.737 63.8 402.737 71.1V76.35L339.887 76.5L340.187 67.05H388.637C388.637 60.95 386.787 56.05 383.087 52.35C379.387 48.65 374.437 46.8 368.237 46.8C363.537 46.8 359.487 47.85 356.087 49.95C352.787 51.95 350.237 54.95 348.437 58.95C346.737 62.85 345.887 67.55 345.887 73.05C345.887 81.85 347.887 88.65 351.887 93.45C355.887 98.15 361.637 100.5 369.137 100.5C374.637 100.5 379.137 99.4 382.637 97.2C386.137 95 388.487 91.8 389.687 87.6H402.887C401.087 95.4 397.237 101.45 391.337 105.75C385.437 110.05 377.937 112.2 368.837 112.2Z" fill="#0A0A0A"/>
<path d="M425.386 110.4H411.286V0H425.386V71.55L457.936 37.05H475.636L447.586 66.3L475.486 110.4H459.286L437.836 76.5L425.386 89.55V110.4Z" fill="#0A0A0A"/>
<path d="M516.773 31.2C516.773 25 518.323 19.55 521.423 14.85C524.523 10.15 528.873 6.50001 534.473 3.9C540.173 1.3 546.723 0 554.123 0C561.023 0 567.023 1.25 572.123 3.75001C577.323 6.15 581.373 9.6 584.273 14.1C587.273 18.6 588.973 24 589.373 30.3H574.523C574.123 24.9 572.123 20.7 568.523 17.7C564.923 14.7 560.073 13.2 553.973 13.2C547.173 13.2 541.723 14.8 537.623 18C533.523 21.1 531.473 25.35 531.473 30.75C531.473 35.15 532.723 38.7 535.223 41.4C537.723 44 541.523 45.9 546.623 47.1L564.473 51.3C573.373 53.3 580.023 56.75 584.423 61.65C588.923 66.45 591.173 72.65 591.173 80.25C591.173 86.75 589.573 92.4 586.373 97.2C583.273 102 578.823 105.7 573.023 108.3C567.323 110.9 560.623 112.2 552.923 112.2C545.623 112.2 539.173 111 533.573 108.6C528.073 106.1 523.723 102.6 520.523 98.1C517.423 93.5 515.673 88.15 515.273 82.05H530.273C530.373 87.25 532.473 91.4 536.573 94.5C540.673 97.5 546.123 99 552.923 99C560.123 99 565.823 97.4 570.023 94.2C574.323 91 576.473 86.75 576.473 81.45C576.473 77.15 575.273 73.65 572.873 70.95C570.473 68.25 566.673 66.3 561.473 65.1L543.623 61.05C534.823 59.05 528.123 55.55 523.523 50.55C519.023 45.45 516.773 39 516.773 31.2Z" fill="#0A0A0A"/>
<path d="M591.946 37.05H634.846V48.9H591.946V37.05ZM620.446 110.4H606.346V14.1H620.446V110.4Z" fill="#0A0A0A"/>
<path d="M690.7 37.05H704.65V110.4H692.05L690.55 99.3C688.45 103.1 685.15 106.2 680.65 108.6C676.15 111 671.2 112.2 665.8 112.2C657.3 112.2 650.7 109.55 646 104.25C641.4 98.85 639.1 91.65 639.1 82.65V37.05H653.2V78C653.2 85.8 654.75 91.4 657.85 94.8C661.05 98.1 665.35 99.75 670.75 99.75C677.25 99.75 682.2 97.75 685.6 93.75C689 89.65 690.7 83.65 690.7 75.75V37.05Z" fill="#0A0A0A"/>
<path d="M745.542 112.2C738.442 112.2 732.342 110.6 727.242 107.4C722.142 104.1 718.192 99.55 715.392 93.75C712.692 87.95 711.342 81.35 711.342 73.95C711.342 66.45 712.742 59.8 715.542 54C718.342 48.1 722.342 43.45 727.542 40.05C732.742 36.65 738.942 34.95 746.142 34.95C751.842 34.95 756.892 36.15 761.292 38.55C765.792 40.85 769.292 44.3 771.792 48.9V0H785.742V110.4H773.142L771.942 97.05C769.542 101.95 765.992 105.7 761.292 108.3C756.692 110.9 751.442 112.2 745.542 112.2ZM748.392 99.45C753.192 99.45 757.292 98.35 760.692 96.15C764.192 93.95 766.892 90.9 768.792 87C770.692 83.1 771.642 78.6 771.642 73.5C771.642 68.4 770.692 63.95 768.792 60.15C766.892 56.25 764.192 53.2 760.692 51C757.292 48.8 753.192 47.7 748.392 47.7C743.592 47.7 739.492 48.85 736.092 51.15C732.692 53.35 730.092 56.4 728.292 60.3C726.492 64.1 725.592 68.5 725.592 73.5C725.592 78.6 726.492 83.1 728.292 87C730.092 90.9 732.692 93.95 736.092 96.15C739.492 98.35 743.592 99.45 748.392 99.45Z" fill="#0A0A0A"/>
<path d="M798.584 110.4V37.05H812.684V110.4H798.584ZM805.484 19.65C802.984 19.65 800.784 18.75 798.884 16.95C797.084 15.05 796.184 12.85 796.184 10.35C796.184 7.75 797.084 5.55001 798.884 3.75001C800.784 1.95 802.984 1.05 805.484 1.05C808.084 1.05 810.284 1.95 812.084 3.75001C813.884 5.55001 814.784 7.75 814.784 10.35C814.784 12.85 813.884 15.05 812.084 16.95C810.284 18.75 808.084 19.65 805.484 19.65Z" fill="#0A0A0A"/>
<path d="M820.854 73.65C820.854 66.15 822.504 59.5 825.804 53.7C829.104 47.9 833.604 43.35 839.304 40.05C845.104 36.75 851.704 35.1 859.104 35.1C866.504 35.1 873.054 36.75 878.754 40.05C884.454 43.35 888.954 47.9 892.254 53.7C895.554 59.5 897.204 66.15 897.204 73.65C897.204 81.15 895.554 87.8 892.254 93.6C888.954 99.4 884.454 103.95 878.754 107.25C873.054 110.55 866.504 112.2 859.104 112.2C851.704 112.2 845.104 110.55 839.304 107.25C833.604 103.95 829.104 99.4 825.804 93.6C822.504 87.8 820.854 81.15 820.854 73.65ZM835.104 73.65C835.104 78.75 836.104 83.25 838.104 87.15C840.204 91.05 843.054 94.1 846.654 96.3C850.254 98.5 854.404 99.6 859.104 99.6C863.804 99.6 867.954 98.5 871.554 96.3C875.154 94.1 877.954 91.05 879.954 87.15C882.054 83.25 883.104 78.75 883.104 73.65C883.104 68.45 882.054 63.95 879.954 60.15C877.954 56.25 875.154 53.2 871.554 51C867.954 48.8 863.804 47.7 859.104 47.7C854.404 47.7 850.254 48.8 846.654 51C843.054 53.2 840.204 56.25 838.104 60.15C836.104 63.95 835.104 68.45 835.104 73.65Z" fill="#0A0A0A"/>
<path fill-rule="evenodd" clip-rule="evenodd" d="M243.042 48.4087C243.266 48.118 243.673 48.0785 243.952 48.3207C244.064 48.4178 244.162 48.5059 244.249 48.5838C244.399 48.6405 244.53 48.7535 244.61 48.91C244.632 48.9306 244.654 48.9497 244.674 48.9683C244.83 49.1138 244.9 49.1782 244.97 49.2323C245.235 49.4055 245.548 49.683 245.977 50.0457C246.338 50.3511 246.825 50.7558 247.516 51.2929L248.277 51.8758L248.28 51.8774C250.508 53.5749 252.371 55.0415 253.731 56.1202C255.112 57.2155 255.933 57.8792 256.124 58.0114C257.011 58.6276 258.224 59.7771 259.269 60.6613C260.57 61.7625 261.883 63.0601 263.141 64.1995C265.098 65.9708 266.788 67.8224 267.759 68.7711C269.184 70.1648 270.38 71.6566 271.601 72.9805C272.704 74.1761 273.518 75.1269 274.166 75.8994C274.821 76.6796 275.287 77.2516 275.722 77.7222C277.093 79.2079 278.56 80.9774 279.861 82.6232C280.719 83.7095 282.031 85.2866 283.316 86.85C284.129 87.8395 284.894 88.7901 285.862 90.1703C286.553 91.1552 287.436 92.3712 287.649 94.1087C288.014 97.0847 287.859 98.8997 287.87 99.3481C287.879 99.6738 287.671 99.9476 287.385 100.02C287.646 100.135 287.422 100.484 287.381 100.525C287.121 100.779 286.611 100.388 286.366 100.108C286.186 99.9042 285.996 99.6876 285.796 99.4256L285.784 99.4098C285.486 98.9956 284.681 97.9761 276.793 91.9167C273.655 89.9028 269.614 87.6929 263.931 85.2317C261.083 83.9986 257.864 82.7561 254.85 81.6006C251.845 80.4487 249.033 79.3795 247.027 78.5011C244.573 77.4261 243.109 76.7274 242.251 76.2749C241.824 76.0498 241.531 75.8773 241.336 75.7431C241.241 75.6772 241.15 75.6075 241.075 75.5339C241.037 75.4971 240.99 75.4465 240.947 75.3829C240.907 75.3252 240.841 75.2131 240.816 75.0578C240.76 74.713 240.957 74.3891 241.264 74.2961C241.229 74.2298 241.196 74.1668 241.165 74.1038L241.159 74.0932L241.154 74.0824C240.861 73.4418 240.651 72.9267 240.382 72.3644C239.742 71.2584 239.08 70.1909 238.233 68.7971C236.775 66.3974 236.261 65.3151 235.191 63.7206C234.173 62.2025 233.109 60.3847 232.245 58.8031C231.958 58.2781 231.623 57.6906 231.391 57.2618C231.154 56.8242 230.931 56.3882 230.829 56.051C230.827 56.0438 230.825 56.0362 230.823 56.0289C230.822 56.0233 230.821 56.0176 230.819 56.0119C230.817 56.0021 230.814 55.9924 230.812 55.9826L230.808 55.9568C230.807 55.9512 230.807 55.9457 230.806 55.9401C230.804 55.9268 230.802 55.9134 230.801 55.9001C230.8 55.8869 230.8 55.8737 230.799 55.8604C230.799 55.8513 230.799 55.8423 230.799 55.8333C230.799 55.8189 230.8 55.8046 230.801 55.7902C230.801 55.7843 230.801 55.7783 230.802 55.7724C230.804 55.7554 230.806 55.7386 230.809 55.7217C230.81 55.7167 230.81 55.7115 230.811 55.7065C230.814 55.6896 230.819 55.673 230.823 55.6564C230.824 55.6525 230.824 55.6483 230.826 55.6444C230.831 55.6269 230.837 55.6099 230.843 55.5927C230.845 55.5877 230.847 55.5825 230.849 55.5776C230.852 55.5695 230.855 55.5615 230.859 55.5536C230.865 55.5397 230.871 55.5258 230.879 55.5124C230.882 55.5061 230.885 55.5 230.889 55.4938C230.896 55.4807 230.905 55.4685 230.913 55.456C230.915 55.4533 230.916 55.4504 230.918 55.4477C230.92 55.4449 230.922 55.442 230.924 55.4393C230.932 55.4269 230.942 55.4148 230.951 55.403C230.957 55.3962 230.962 55.3892 230.968 55.3827C230.976 55.3737 230.984 55.3649 230.992 55.3564C230.999 55.3497 231.005 55.3432 231.012 55.3369C231.023 55.327 231.034 55.3177 231.045 55.3086C231.049 55.3048 231.054 55.3011 231.059 55.2975C231.072 55.2877 231.084 55.2783 231.098 55.2695C231.102 55.2667 231.106 55.264 231.111 55.2613C231.122 55.2541 231.134 55.2471 231.146 55.2407C231.156 55.2354 231.166 55.2303 231.177 55.2256C231.182 55.2229 231.188 55.2205 231.194 55.218C231.227 55.2042 231.26 55.193 231.294 55.185C231.327 55.1773 231.359 55.1724 231.391 55.1701C231.399 55.1695 231.406 55.1695 231.413 55.1693C231.427 55.1688 231.441 55.1683 231.455 55.1687C231.461 55.1689 231.467 55.1695 231.473 55.1699C231.529 55.1735 231.585 55.1849 231.639 55.2036C231.648 55.2069 231.657 55.211 231.667 55.2147C231.676 55.2184 231.685 55.222 231.693 55.2261C231.705 55.2313 231.716 55.237 231.727 55.243C231.735 55.2472 231.743 55.2515 231.751 55.2561C231.761 55.2617 231.77 55.2679 231.779 55.274C231.79 55.2813 231.801 55.2886 231.812 55.2966C231.815 55.2986 231.818 55.3005 231.821 55.3026C232.188 55.585 232.434 55.7738 232.636 55.9447L232.825 56.1125L232.838 56.124L232.849 56.1357C233.122 56.4144 233.594 56.7501 234.366 57.1843L234.748 57.3937L234.778 57.4147C235.401 57.8448 236.165 58.3223 236.957 58.84C237.731 59.3467 238.523 59.8866 239.134 60.4061C239.903 61.0592 240.965 61.8207 241.972 62.3379C243.015 62.8738 244.294 63.5989 245.896 64.5307C247.804 65.6406 248.972 66.415 250.589 67.3872C251.24 67.7781 251.85 68.0668 252.37 68.2656C252.151 67.8589 251.888 67.4126 251.59 66.9135C251.172 66.2123 250.695 65.419 250.221 64.5354L250.212 64.5178L250.203 64.5002C249.757 63.5426 249.377 62.6595 249.042 61.871C248.704 61.0775 248.417 60.3913 248.148 59.8047C247.589 58.5861 246.931 57.1681 246.206 55.5912C245.533 54.1292 244.127 51.1252 243.55 49.7353C243.439 49.6348 243.305 49.516 243.142 49.374C242.863 49.1318 242.818 48.6994 243.042 48.4087ZM245.811 51.6341C246.368 52.855 246.979 54.1638 247.368 55.0108C248.09 56.5789 248.753 58.0093 249.311 59.2249C249.591 59.8356 249.889 60.5492 250.221 61.3286C250.552 62.1082 250.923 62.9664 251.355 63.8944C251.807 64.7363 252.263 65.4945 252.682 66.1971C253.047 66.8084 253.391 67.3894 253.666 67.9305L253.779 68.1601L253.788 68.1784L253.796 68.1968C253.91 68.475 253.97 68.6053 254.149 68.7453L254.16 68.7538C254.165 68.7581 254.17 68.7632 254.175 68.7676C254.186 68.7767 254.196 68.7857 254.206 68.7953C254.228 68.8172 254.249 68.841 254.268 68.866L254.272 68.8702C254.278 68.8788 254.285 68.8874 254.291 68.8963C254.309 68.9221 254.324 68.9498 254.339 68.9782C254.348 68.9969 254.357 69.0157 254.365 69.035C254.395 69.1097 254.414 69.191 254.418 69.2763C254.418 69.285 254.418 69.2936 254.418 69.3022C254.418 69.3137 254.418 69.3253 254.418 69.3368C254.417 69.347 254.416 69.357 254.415 69.367C254.414 69.3792 254.413 69.3914 254.412 69.4036C254.41 69.4163 254.408 69.4288 254.406 69.4412C254.404 69.4492 254.402 69.4572 254.4 69.4651C254.392 69.503 254.38 69.5394 254.366 69.5746C254.364 69.5797 254.361 69.5848 254.359 69.5899C254.353 69.603 254.348 69.616 254.341 69.6287C254.337 69.6371 254.333 69.6457 254.328 69.6539C254.322 69.6638 254.316 69.6731 254.31 69.6826C254.306 69.6897 254.302 69.6974 254.297 69.7044C254.295 69.707 254.292 69.7089 254.29 69.7115C254.286 69.7174 254.282 69.7234 254.278 69.7291C254.269 69.741 254.26 69.7525 254.25 69.7635C254.172 69.8536 254.07 69.9198 253.954 69.9536C253.947 69.9556 253.94 69.9585 253.933 69.9603C253.922 69.9631 253.911 69.9649 253.9 69.967C253.89 69.9689 253.881 69.9708 253.872 69.9722C253.848 69.9757 253.824 69.979 253.8 69.9797C253.401 69.9907 252.832 69.8669 252.201 69.6454C251.552 69.4176 250.782 69.0667 249.966 68.576C248.278 67.5616 247.205 66.8439 245.288 65.7291C243.688 64.7979 242.433 64.0874 241.423 63.5683C240.306 62.9943 239.16 62.1698 238.335 61.4685C237.793 61.0083 237.064 60.5083 236.291 60.0025C235.548 59.5164 234.752 59.0168 234.118 58.5808C233.852 58.437 233.606 58.2972 233.378 58.1615C234.227 59.7137 235.262 61.4793 236.243 62.9414C237.324 64.5536 237.936 65.7966 239.318 68.0709C239.952 69.1135 240.493 69.9911 241.001 70.8426L241.499 71.6909L241.512 71.7146L241.525 71.7397C241.794 72.3017 242.058 72.9346 242.314 73.4936C242.456 73.7782 242.641 74.1038 243.12 74.8606C243.199 74.9855 243.233 75.1269 243.229 75.2651C244.088 75.6982 245.431 76.3286 247.503 77.2362C249.474 78.0995 252.251 79.1556 255.271 80.3133C258.282 81.4676 261.526 82.7193 264.402 83.9649C269.793 86.2999 273.744 88.4201 276.86 90.3742L277.472 90.7631L277.496 90.7776L277.518 90.7951C284.35 96.0428 285.99 97.595 286.593 98.3147C286.607 97.4435 286.593 96.12 286.365 94.2602C286.202 92.9339 285.543 91.9941 284.832 90.9796C284.83 90.9775 284.829 90.9754 284.827 90.9733C283.889 89.6355 283.149 88.7163 282.345 87.7383C281.071 86.1875 279.743 84.5907 278.873 83.4904C277.584 81.8593 276.142 80.1198 274.803 78.67C274.34 78.1679 273.839 77.5538 273.205 76.7991C272.565 76.0366 271.766 75.1031 270.683 73.9283C269.363 72.4985 268.293 71.1422 266.889 69.7694C265.825 68.7294 264.256 66.9954 262.31 65.2337C260.979 64.0291 259.759 62.8149 258.471 61.7253C257.315 60.7472 256.248 59.7235 255.427 59.1529C255.19 58.9886 254.301 58.2704 252.966 57.2116C251.611 56.1366 249.756 54.6764 247.539 52.9867L246.76 52.391C246.391 52.1039 246.079 51.853 245.811 51.6341Z" fill="#FAFAFA"/>
<path d="M245.811 51.6341C246.368 52.855 246.979 54.1638 247.368 55.0108C248.09 56.5789 248.753 58.0093 249.311 59.2249C249.591 59.8356 249.889 60.5492 250.221 61.3286C250.552 62.1082 250.923 62.9664 251.355 63.8944C251.807 64.7363 252.263 65.4945 252.682 66.1971C253.047 66.8084 253.391 67.3894 253.666 67.9305L253.779 68.1601L253.788 68.1784L253.796 68.1968C253.91 68.475 253.97 68.6053 254.149 68.7453L254.16 68.7538C254.165 68.7581 254.17 68.7632 254.175 68.7676C254.186 68.7767 254.196 68.7857 254.206 68.7953C254.228 68.8172 254.249 68.841 254.268 68.866L254.272 68.8702C254.278 68.8788 254.285 68.8874 254.291 68.8963C254.309 68.9221 254.324 68.9498 254.339 68.9782C254.348 68.9969 254.357 69.0157 254.365 69.035C254.395 69.1097 254.414 69.191 254.418 69.2763C254.418 69.285 254.418 69.2936 254.418 69.3022C254.418 69.3137 254.418 69.3253 254.418 69.3368C254.417 69.347 254.416 69.357 254.415 69.367C254.414 69.3792 254.413 69.3914 254.412 69.4036C254.41 69.4163 254.408 69.4288 254.406 69.4412C254.404 69.4492 254.402 69.4572 254.4 69.4651C254.392 69.503 254.38 69.5394 254.366 69.5746C254.364 69.5797 254.361 69.5848 254.359 69.5899C254.353 69.603 254.348 69.616 254.341 69.6287C254.337 69.6371 254.333 69.6457 254.328 69.6539C254.322 69.6638 254.316 69.6731 254.31 69.6826C254.306 69.6897 254.302 69.6974 254.297 69.7044C254.295 69.707 254.292 69.7089 254.29 69.7115C254.286 69.7174 254.282 69.7234 254.278 69.7291C254.269 69.741 254.26 69.7525 254.25 69.7635C254.172 69.8536 254.07 69.9198 253.954 69.9536C253.947 69.9556 253.94 69.9585 253.933 69.9603C253.922 69.9631 253.911 69.9649 253.9 69.967C253.89 69.9689 253.881 69.9708 253.872 69.9722C253.848 69.9757 253.824 69.979 253.8 69.9797C253.401 69.9907 252.832 69.8669 252.201 69.6454C251.552 69.4176 250.782 69.0667 249.966 68.576C248.278 67.5616 247.205 66.8439 245.288 65.7291C243.688 64.7979 242.433 64.0874 241.423 63.5683C240.306 62.9943 239.16 62.1698 238.335 61.4685C237.793 61.0083 237.064 60.5083 236.291 60.0025C235.548 59.5164 234.752 59.0168 234.118 58.5808C233.852 58.437 233.606 58.2972 233.378 58.1615C234.227 59.7137 235.262 61.4793 236.243 62.9414C237.324 64.5536 237.936 65.7966 239.318 68.0709C239.952 69.1135 240.493 69.9911 241.001 70.8426L241.499 71.6909L241.512 71.7146L241.525 71.7397C241.794 72.3017 242.058 72.9346 242.314 73.4936C242.456 73.7782 242.641 74.1038 243.12 74.8606C243.199 74.9855 243.233 75.1269 243.229 75.2651C244.088 75.6982 245.431 76.3286 247.503 77.2362C249.474 78.0995 252.251 79.1556 255.271 80.3133C258.282 81.4676 261.526 82.7193 264.402 83.9649C269.793 86.2999 273.744 88.4201 276.86 90.3742L277.472 90.7631L277.496 90.7776L277.518 90.7951C284.35 96.0428 285.99 97.595 286.593 98.3147C286.607 97.4435 286.593 96.12 286.365 94.2602C286.202 92.9339 285.543 91.9941 284.832 90.9796L284.827 90.9733C283.889 89.6355 283.149 88.7163 282.345 87.7383C281.071 86.1875 279.743 84.5907 278.873 83.4904C277.584 81.8593 276.142 80.1198 274.803 78.67C274.34 78.1679 273.839 77.5538 273.205 76.7991C272.565 76.0366 271.766 75.1031 270.683 73.9283C269.363 72.4985 268.293 71.1422 266.889 69.7694C265.825 68.7294 264.256 66.9954 262.31 65.2337C260.979 64.0291 259.759 62.8149 258.471 61.7253C257.315 60.7472 256.248 59.7235 255.427 59.1529C255.19 58.9886 254.301 58.2704 252.966 57.2116C251.611 56.1366 249.756 54.6764 247.539 52.9867L246.76 52.391C246.391 52.1039 246.079 51.853 245.811 51.6341Z" fill="#FAFAFA"/>
</svg>
