<svg width="82" height="78" viewBox="0 0 82 78" fill="none" xmlns="http://www.w3.org/2000/svg">
<path d="M4.95303 38.55C4.95303 31.05 6.60303 24.4 9.90303 18.6C13.203 12.8 17.703 8.25 23.403 4.95C29.203 1.65 35.803 0 43.203 0C50.603 0 57.153 1.65 62.853 4.95C68.553 8.25 73.053 12.8 76.353 18.6C79.653 24.4 81.303 31.05 81.303 38.55C81.303 46.05 79.653 52.7 76.353 58.5C73.053 64.3 68.553 68.85 62.853 72.15C57.153 75.45 50.603 77.1 43.203 77.1C35.803 77.1 29.203 75.45 23.403 72.15C17.703 68.85 13.203 64.3 9.90303 58.5C6.60303 52.7 4.95303 46.05 4.95303 38.55Z" fill="url(#paint0_linear_46_29)"/>
<path fill-rule="evenodd" clip-rule="evenodd" d="M16.6397 1.46676C16.9439 1.07166 17.4982 1.01806 17.8774 1.34721C18.0294 1.47916 18.162 1.59889 18.2809 1.70487C18.4844 1.78185 18.6623 1.93538 18.7711 2.1482C18.8012 2.1761 18.8304 2.20217 18.8577 2.22745C19.0708 2.4252 19.1659 2.5127 19.2604 2.58614C19.6206 2.82163 20.0457 3.19883 20.629 3.6918C21.12 4.10679 21.7823 4.65691 22.7207 5.38692L23.7555 6.17907L23.7593 6.18123C26.787 8.48846 29.3199 10.4818 31.1679 11.9479C33.0444 13.4366 34.1612 14.3386 34.4199 14.5183C35.6255 15.3557 37.2742 16.9182 38.6947 18.1199C40.4638 19.6165 42.2475 21.3802 43.9579 22.9288C46.6172 25.3363 48.9149 27.8529 50.2336 29.1422C52.171 31.0366 53.7965 33.0641 55.4566 34.8634C56.9557 36.4884 58.0609 37.7808 58.9426 38.8307C59.833 39.891 60.4662 40.6684 61.0566 41.3081C62.9202 43.3274 64.9139 45.7324 66.6818 47.9692C67.8488 49.4458 69.6318 51.5892 71.3783 53.7142C72.4836 55.0589 73.5236 56.3511 74.839 58.2269C75.7776 59.5655 76.9785 61.2183 77.2681 63.5798C77.7641 67.6246 77.5525 70.0914 77.5683 70.7008C77.5798 71.1435 77.2972 71.5157 76.9084 71.614C77.2629 71.77 76.959 72.2453 76.903 72.3001C76.5498 72.6457 75.8567 72.1141 75.523 71.7342C75.2794 71.4566 75.0209 71.1622 74.7489 70.8061L74.7333 70.7846C74.3273 70.2218 73.2336 68.8361 62.5128 60.6005C58.2481 57.8634 52.7546 54.8598 45.0308 51.5147C41.1608 49.8386 36.7858 48.1499 32.689 46.5795C28.6047 45.0139 24.7824 43.5606 22.0565 42.3667C18.7207 40.9057 16.7309 39.9561 15.5647 39.341C14.9848 39.0351 14.5866 38.8006 14.322 38.6182C14.1922 38.5287 14.0692 38.4339 13.9669 38.334C13.9156 38.2838 13.8512 38.2151 13.7922 38.1286C13.7387 38.0503 13.6483 37.8979 13.6143 37.6868C13.539 37.2181 13.8067 36.778 14.2242 36.6516C14.1764 36.5615 14.131 36.4757 14.0883 36.3902L14.0808 36.3757L14.0741 36.3611C13.6754 35.4904 13.3901 34.7904 13.0252 34.0261C12.155 32.5229 11.2557 31.072 10.1043 29.1776C8.12181 25.916 7.42315 24.4451 5.96972 22.2778C4.58595 20.2145 3.13984 17.7439 1.96551 15.5942C1.57575 14.8808 1.12064 14.0822 0.804871 13.4995C0.482521 12.9047 0.179578 12.3121 0.0414845 11.8539C0.0385213 11.844 0.0358246 11.8337 0.0331823 11.8238C0.0311426 11.8162 0.0295866 11.8084 0.0277307 11.8007C0.0244846 11.7873 0.020507 11.7742 0.0178389 11.7608L0.0122037 11.7257C0.0109956 11.7182 0.0104749 11.7106 0.00943868 11.7031C0.00692057 11.6849 0.00480073 11.6669 0.00331114 11.6487C0.00183722 11.6308 0.00120941 11.6128 0.000717573 11.5947C0.000387529 11.5824 -0.000110883 11.5702 2.20265e-05 11.558C0.000217211 11.5384 0.00141963 11.5189 0.00278208 11.4994C0.00335628 11.4913 0.00333686 11.4832 0.00410945 11.4752C0.00629716 11.4521 0.0100515 11.4292 0.0138983 11.4063C0.0150614 11.3994 0.0153428 11.3924 0.016651 11.3856C0.0209982 11.3627 0.0266319 11.3401 0.0326604 11.3175C0.0340884 11.3122 0.0346183 11.3065 0.0361356 11.3012C0.042938 11.2774 0.0517653 11.2543 0.0604742 11.2309C0.0630021 11.2241 0.0649306 11.2171 0.0676082 11.2104C0.0719927 11.1994 0.0766662 11.1886 0.0814821 11.1777C0.0898697 11.1588 0.0985518 11.14 0.108133 11.1218C0.112636 11.1132 0.117526 11.1049 0.122315 11.0964C0.132329 11.0787 0.143785 11.062 0.154917 11.0451C0.157325 11.0414 0.159335 11.0375 0.161801 11.0338C0.164337 11.0301 0.166953 11.0261 0.169533 11.0224C0.181369 11.0055 0.193857 10.9891 0.206805 10.9731C0.214291 10.9638 0.221543 10.9544 0.229316 10.9455C0.240065 10.9332 0.251266 10.9214 0.26268 10.9097C0.271539 10.9006 0.280553 10.8918 0.289717 10.8832C0.303971 10.8699 0.318792 10.8571 0.333952 10.8447C0.340296 10.8396 0.346798 10.8346 0.353258 10.8297C0.37045 10.8164 0.388004 10.8036 0.406255 10.7916C0.412004 10.7879 0.417775 10.7841 0.423597 10.7805C0.439426 10.7707 0.455545 10.7612 0.472107 10.7524C0.485636 10.7452 0.499321 10.7384 0.513156 10.732C0.521164 10.7283 0.529405 10.7251 0.537566 10.7216C0.581552 10.7029 0.626742 10.6877 0.672922 10.6768C0.717011 10.6664 0.761203 10.6596 0.805256 10.6565C0.815027 10.6558 0.824846 10.6558 0.834645 10.6554C0.853505 10.6548 0.872283 10.6541 0.891024 10.6547C0.899223 10.6549 0.907417 10.6558 0.915618 10.6563C0.992856 10.6611 1.06859 10.6767 1.14117 10.7021C1.154 10.7066 1.16653 10.7121 1.17923 10.7172C1.19145 10.7222 1.20361 10.7271 1.2156 10.7326C1.23119 10.7397 1.24657 10.7474 1.26189 10.7556C1.27279 10.7614 1.28364 10.7672 1.29432 10.7734C1.30717 10.781 1.31952 10.7895 1.33213 10.7978C1.34729 10.8077 1.36244 10.8176 1.37704 10.8284C1.38079 10.8312 1.38507 10.8338 1.38879 10.8367C1.88764 11.2204 2.22239 11.4771 2.4965 11.7094L2.75392 11.9373L2.77122 11.953L2.78682 11.969C3.15725 12.3477 3.79836 12.804 4.84819 13.3941L5.36681 13.6788L5.40789 13.7072C6.25425 14.2918 7.29391 14.9408 8.36952 15.6445C9.42219 16.3332 10.4977 17.067 11.3289 17.773C12.3738 18.6606 13.817 19.6956 15.1852 20.3986C16.603 21.127 18.3419 22.1126 20.5188 23.3789C23.112 24.8874 24.6998 25.9399 26.898 27.2613C27.7818 27.7926 28.6112 28.185 29.3186 28.4553C29.0201 27.9025 28.6632 27.2958 28.2583 26.6175C27.6896 25.6645 27.0415 24.5862 26.3977 23.3853L26.3852 23.3615L26.3735 23.3375C25.7662 22.036 25.25 20.8357 24.7944 19.764C24.336 18.6855 23.946 17.7529 23.58 16.9557C22.8196 15.2994 21.9263 13.3721 20.9404 11.2289C20.0263 9.24182 18.1147 5.15898 17.3302 3.2699C17.179 3.13321 16.9981 2.9718 16.7758 2.77876C16.3966 2.44955 16.3357 1.86191 16.6397 1.46676ZM20.403 5.85066C21.1612 7.51002 21.9904 9.28878 22.52 10.4401C23.5004 12.5713 24.4021 14.5154 25.1606 16.1676C25.5416 16.9976 25.9468 17.9675 26.3971 19.0268C26.8476 20.0865 27.3508 21.2529 27.9388 22.5141C28.5532 23.6584 29.1722 24.6889 29.7421 25.6438C30.238 26.4747 30.7063 27.2643 31.0795 27.9998L31.2331 28.3118L31.2449 28.3367L31.2559 28.3617C31.4116 28.7398 31.4929 28.917 31.7364 29.1073L31.7513 29.1187C31.7584 29.1245 31.7647 29.1315 31.7717 29.1376C31.7859 29.1499 31.8 29.1621 31.8134 29.1752C31.8438 29.205 31.872 29.2373 31.8984 29.2713C31.8999 29.2732 31.9013 29.2751 31.9028 29.277C31.9119 29.2887 31.9209 29.3003 31.9293 29.3124C31.9536 29.3476 31.9745 29.3852 31.9942 29.4238C32.0071 29.4492 32.0194 29.4747 32.03 29.501C32.071 29.6025 32.0969 29.7129 32.1019 29.8289C32.1023 29.8407 32.1013 29.8524 32.1014 29.8641C32.1015 29.8798 32.1018 29.8954 32.1012 29.9111C32.1006 29.9249 32.0993 29.9386 32.0982 29.9522C32.0968 29.9688 32.0954 29.9854 32.0931 30.0019C32.0908 30.0191 32.088 30.0362 32.0848 30.0531C32.0828 30.0639 32.0803 30.0747 32.0779 30.0855C32.0662 30.1371 32.05 30.1865 32.0305 30.2343C32.0277 30.2413 32.0247 30.2482 32.0217 30.2551C32.0139 30.273 32.006 30.2907 31.9971 30.3079C31.9913 30.3194 31.9856 30.3309 31.9792 30.3422C31.9716 30.3555 31.9632 30.3682 31.955 30.3811C31.9489 30.3908 31.9437 30.4012 31.9372 30.4107C31.9347 30.4143 31.9308 30.4169 31.9283 30.4204C31.9226 30.4284 31.9172 30.4366 31.9113 30.4444C31.8991 30.4605 31.8866 30.4761 31.8736 30.491C31.7668 30.6135 31.6284 30.7035 31.4709 30.7495C31.4615 30.7522 31.4524 30.7562 31.4428 30.7586C31.4279 30.7624 31.4126 30.7648 31.3974 30.7677C31.3847 30.7702 31.3721 30.7729 31.3594 30.7748C31.3274 30.7794 31.295 30.784 31.2619 30.7849C30.72 30.7999 29.9467 30.6316 29.0888 30.3306C28.2064 30.021 27.1597 29.544 26.0502 28.8771C23.7566 27.4984 22.2977 26.5229 19.6931 25.0078C17.5175 23.7422 15.8128 22.7765 14.4395 22.0709C12.9212 21.2908 11.3643 20.1701 10.2422 19.2169C9.50599 18.5915 8.51457 17.9119 7.46382 17.2244C6.45405 16.5638 5.37335 15.8848 4.51167 15.2921C4.14968 15.0967 3.81456 14.9068 3.50566 14.7223C4.65928 16.832 6.06619 19.2316 7.39898 21.2189C8.86849 23.4101 9.70009 25.0994 11.579 28.1907C12.4403 29.6077 13.1761 30.8004 13.8654 31.9577L14.5427 33.1108L14.5609 33.1429L14.5777 33.1771C14.9437 33.9408 15.3025 34.801 15.6501 35.5609C15.8439 35.9476 16.0956 36.3902 16.7457 37.4188C16.8528 37.5886 16.9 37.7808 16.8949 37.9686C18.0616 38.5572 19.8869 39.414 22.7034 40.6476C25.3823 41.8209 29.1564 43.2563 33.2614 44.8298C37.354 46.3986 41.7623 48.0999 45.6712 49.7929C52.9991 52.9665 58.3681 55.8481 62.6036 58.504L63.4361 59.0325L63.468 59.0523L63.4979 59.0761C72.7837 66.2084 75.0131 68.3181 75.8327 69.2962C75.8514 68.1122 75.8318 66.3134 75.5218 63.7857C75.3008 61.983 74.4051 60.7056 73.4383 59.3268C73.4363 59.324 73.4343 59.3211 73.4323 59.3182C72.1574 57.5 71.1515 56.2507 70.059 54.9215C68.3265 52.8137 66.5215 50.6434 65.3396 49.148C63.5874 46.931 61.6271 44.5668 59.8084 42.5963C59.1786 41.9139 58.4975 41.0792 57.6361 40.0534C56.7658 39.0171 55.6806 37.7483 54.2076 36.1517C52.4147 34.2083 50.9596 32.365 49.0512 30.4991C47.6056 29.0856 45.4725 26.7288 42.8278 24.3345C41.0194 22.6972 39.3615 21.047 37.611 19.5661C36.0396 18.2366 34.5895 16.8453 33.4731 16.0698C33.1514 15.8464 31.9424 14.8703 30.1285 13.4312C28.2868 11.9701 25.7651 9.9855 22.7516 7.689L21.694 6.8793C21.1924 6.48911 20.7672 6.1481 20.403 5.85066Z" fill="black"/>
<path d="M20.403 5.85066C21.1612 7.51002 21.9904 9.28878 22.52 10.4401C23.5004 12.5713 24.4021 14.5154 25.1606 16.1676C25.5416 16.9976 25.9468 17.9675 26.3971 19.0268C26.8476 20.0865 27.3508 21.2529 27.9388 22.5141C28.5532 23.6584 29.1722 24.6889 29.7421 25.6438C30.238 26.4747 30.7063 27.2643 31.0795 27.9998L31.2331 28.3118L31.2449 28.3367L31.2559 28.3617C31.4116 28.7398 31.4929 28.917 31.7364 29.1073L31.7513 29.1187C31.7584 29.1245 31.7647 29.1315 31.7717 29.1376C31.7859 29.1499 31.8 29.1621 31.8134 29.1752C31.8438 29.205 31.872 29.2373 31.8984 29.2713L31.9028 29.277C31.9119 29.2887 31.9209 29.3003 31.9293 29.3124C31.9536 29.3476 31.9745 29.3852 31.9942 29.4238C32.0071 29.4492 32.0194 29.4747 32.03 29.501C32.071 29.6025 32.0969 29.7129 32.1019 29.8289C32.1023 29.8407 32.1013 29.8524 32.1014 29.8641C32.1015 29.8798 32.1018 29.8954 32.1012 29.9111C32.1006 29.9249 32.0993 29.9386 32.0982 29.9522C32.0968 29.9688 32.0954 29.9854 32.0931 30.0019C32.0908 30.0191 32.088 30.0362 32.0848 30.0531C32.0828 30.0639 32.0803 30.0747 32.0779 30.0855C32.0662 30.1371 32.05 30.1865 32.0305 30.2343C32.0277 30.2413 32.0247 30.2482 32.0217 30.2551C32.0139 30.273 32.006 30.2907 31.9971 30.3079C31.9913 30.3194 31.9856 30.3309 31.9792 30.3422C31.9716 30.3555 31.9632 30.3682 31.955 30.3811C31.9489 30.3908 31.9437 30.4012 31.9372 30.4107C31.9347 30.4143 31.9308 30.4169 31.9283 30.4204C31.9226 30.4284 31.9172 30.4366 31.9113 30.4444C31.8991 30.4605 31.8866 30.4761 31.8736 30.491C31.7668 30.6135 31.6284 30.7035 31.4709 30.7495C31.4615 30.7522 31.4524 30.7562 31.4428 30.7586C31.4279 30.7624 31.4126 30.7648 31.3974 30.7677C31.3847 30.7702 31.3721 30.7729 31.3594 30.7748C31.3274 30.7794 31.295 30.784 31.2619 30.7849C30.72 30.7999 29.9467 30.6316 29.0888 30.3306C28.2064 30.021 27.1597 29.544 26.0502 28.8771C23.7566 27.4984 22.2977 26.5229 19.6931 25.0078C17.5175 23.7422 15.8128 22.7765 14.4395 22.0709C12.9212 21.2908 11.3643 20.1701 10.2422 19.2169C9.50599 18.5915 8.51457 17.9119 7.46382 17.2244C6.45405 16.5638 5.37335 15.8848 4.51167 15.2921C4.14968 15.0967 3.81456 14.9068 3.50566 14.7223C4.65928 16.832 6.06619 19.2316 7.39898 21.2189C8.86849 23.4101 9.70009 25.0994 11.579 28.1907C12.4403 29.6077 13.1761 30.8004 13.8654 31.9577L14.5427 33.1108L14.5609 33.1429L14.5777 33.1771C14.9437 33.9408 15.3025 34.801 15.6501 35.5609C15.8439 35.9476 16.0956 36.3902 16.7457 37.4188C16.8528 37.5886 16.9 37.7808 16.8949 37.9686C18.0616 38.5572 19.8869 39.414 22.7034 40.6476C25.3823 41.8209 29.1564 43.2563 33.2614 44.8298C37.354 46.3986 41.7623 48.0999 45.6712 49.7929C52.9991 52.9665 58.3681 55.8481 62.6036 58.504L63.4361 59.0325L63.468 59.0523L63.4979 59.0761C72.7837 66.2084 75.0131 68.3181 75.8327 69.2962C75.8514 68.1122 75.8318 66.3134 75.5218 63.7857C75.3008 61.983 74.4051 60.7056 73.4383 59.3268L73.4323 59.3182C72.1574 57.5 71.1515 56.2507 70.059 54.9215C68.3265 52.8137 66.5215 50.6434 65.3396 49.148C63.5874 46.931 61.6271 44.5668 59.8084 42.5963C59.1786 41.9139 58.4975 41.0792 57.6361 40.0534C56.7658 39.0171 55.6806 37.7483 54.2076 36.1517C52.4147 34.2083 50.9596 32.365 49.0512 30.4991C47.6056 29.0856 45.4725 26.7288 42.8278 24.3345C41.0194 22.6972 39.3615 21.047 37.611 19.5661C36.0396 18.2366 34.5895 16.8453 33.4731 16.0698C33.1514 15.8464 31.9424 14.8703 30.1285 13.4312C28.2868 11.9701 25.7651 9.9855 22.7516 7.689L21.694 6.8793C21.1924 6.48911 20.7672 6.1481 20.403 5.85066Z" fill="black"/>
<defs>
<linearGradient id="paint0_linear_46_29" x1="40.6515" y1="0" x2="40.6515" y2="77.1" gradientUnits="userSpaceOnUse">
<stop stop-color="#FFD987"/>
<stop offset="1" stop-color="#FFAE35"/>
</linearGradient>
</defs>
</svg>
